<?xml version="1.0" standalone="no"?>
<!DOCTYPE svg PUBLIC "-//W3C//DTD SVG 20010904//EN"
 "http://www.w3.org/TR/2001/REC-SVG-20010904/DTD/svg10.dtd">
<svg version="1.0" xmlns="http://www.w3.org/2000/svg"
 width="279.000000pt" height="183.000000pt" viewBox="0 0 279.000000 183.000000"
 preserveAspectRatio="xMidYMid meet">

<g transform="translate(0.000000,183.000000) scale(0.100000,-0.100000)"
fill="#000000" stroke="none">
<path d="M0 915 l0 -915 1395 0 1395 0 0 915 0 915 -1395 0 -1395 0 0 -915z
m1393 355 c23 -20 45 -30 66 -30 27 0 36 -7 61 -47 72 -114 14 -270 -113 -304
-123 -33 -239 45 -254 169 -10 88 38 182 95 182 15 1 42 14 62 30 19 17 38 30
42 30 4 0 23 -13 41 -30z m-284 -519 c16 -10 6 -31 -15 -31 -8 0 -14 -7 -14
-15 0 -8 7 -15 15 -15 8 0 15 -7 15 -15 0 -8 -7 -15 -15 -15 -10 0 -15 -16
-17 -62 -2 -50 -6 -63 -20 -66 -16 -3 -18 5 -18 62 0 52 -3 66 -15 66 -8 0
-15 7 -15 15 0 8 7 15 15 15 9 0 15 9 15 25 0 35 39 55 69 36z m57 -108 c-1
-94 -3 -108 -18 -111 -16 -3 -18 7 -18 106 0 79 4 112 13 115 6 2 15 3 18 1 4
-2 6 -52 5 -111z m-336 87 c0 -4 -6 -13 -14 -19 -18 -15 -41 10 -25 26 12 12
39 7 39 -7z m-384 -68 c8 -9 14 -27 14 -39 0 -21 -4 -23 -62 -23 l-62 0 21
-21 c18 -19 26 -20 51 -11 23 8 33 7 41 -2 8 -10 4 -16 -15 -24 -84 -39 -148
18 -119 106 15 50 98 58 131 14z m880 0 c21 -27 17 -83 -8 -109 -27 -29 -77
-30 -109 -4 -46 37 -23 134 35 143 28 5 66 -9 82 -30z m89 26 c34 16 35 15 35
-8 0 -13 -9 -22 -25 -26 -25 -6 -27 -12 -30 -89 -1 -20 -7 -31 -18 -33 -15 -3
-17 7 -17 76 0 78 7 104 21 80 6 -9 13 -9 34 0z m170 -10 c10 -12 25 -50 25
-62 0 -11 -14 -16 -59 -18 -57 -3 -59 -4 -45 -22 12 -17 18 -18 49 -8 30 9 37
8 42 -4 8 -21 0 -26 -52 -32 -55 -6 -81 13 -91 64 -12 62 40 110 100 93 16 -5
30 -10 31 -11z m395 -13 c0 -5 -19 -10 -42 -10 -47 0 -64 -18 -54 -58 7 -30
37 -43 64 -28 13 7 22 7 30 -1 17 -17 -16 -37 -60 -38 -67 0 -101 78 -58 133
11 14 30 27 43 29 27 5 79 -13 77 -27z m165 -18 c15 -35 4 -85 -22 -104 -25
-19 -87 -16 -106 5 -40 45 -28 114 25 136 43 19 86 3 103 -37z m-1537 10 c17
-35 7 -127 -13 -127 -10 0 -15 18 -17 62 -3 53 -6 63 -22 66 -28 6 -46 -25
-46 -80 0 -36 -4 -48 -15 -48 -11 0 -15 12 -16 43 0 23 -2 53 -3 67 -5 42 2
47 62 46 52 -1 58 -3 70 -29z m65 -19 l21 -52 23 52 c13 30 29 52 38 52 21 0
19 -7 -17 -89 -20 -46 -36 -71 -45 -69 -13 3 -73 126 -73 149 0 5 7 9 16 9 9
0 24 -21 37 -52z m147 -28 c0 -64 -3 -80 -15 -80 -12 0 -15 15 -15 73 0 41 3
77 7 80 17 18 23 0 23 -73z m171 68 c0 -7 1 -42 2 -78 l2 -65 -57 -2 c-51 -3
-59 0 -77 23 -27 34 -27 74 0 108 18 22 28 26 75 26 36 0 54 -4 55 -12z m754
-8 c0 -11 -10 -14 -42 -12 -56 4 -55 -13 2 -27 52 -13 69 -36 52 -72 -10 -19
-21 -25 -57 -27 -47 -3 -88 16 -77 36 5 7 17 7 41 0 19 -6 43 -8 53 -4 17 7
17 8 -1 22 -11 8 -32 14 -46 14 -47 0 -66 42 -34 75 22 21 109 17 109 -5z
m542 8 c10 -8 17 -8 25 0 17 17 48 15 70 -5 14 -12 18 -31 18 -80 0 -56 -2
-63 -20 -63 -18 0 -20 7 -20 60 0 45 -4 62 -15 66 -28 11 -45 -16 -45 -72 0
-41 -4 -54 -15 -54 -11 0 -15 13 -15 54 0 57 -15 81 -44 70 -12 -5 -16 -20
-16 -65 0 -52 -2 -59 -20 -59 -18 0 -20 7 -20 78 l0 77 52 2 c28 1 58 -3 65
-9z m-461 -113 c8 -20 -13 -45 -32 -38 -14 5 -19 34 -7 46 11 12 33 7 39 -8z"/>
<path d="M1326 1241 c-15 -17 -15 -19 -1 -25 23 -8 37 -7 55 4 13 8 12 11 -5
24 -26 20 -29 20 -49 -3z"/>
<path d="M1419 1196 c-49 -13 -122 -64 -140 -98 -9 -17 -5 -27 28 -61 21 -23
39 -44 41 -46 1 -2 18 14 37 36 22 26 53 48 83 59 26 10 49 19 50 20 6 4 -35
91 -44 97 -5 2 -30 -1 -55 -7z"/>
<path d="M1218 1183 c-15 -19 -41 -74 -36 -78 2 -2 14 -6 28 -9 21 -5 31 2 62
43 30 40 34 50 22 55 -29 11 -61 6 -76 -11z"/>
<path d="M1480 1054 c-58 -25 -110 -86 -110 -129 0 -14 4 -14 37 0 48 20 71
41 95 88 25 50 21 59 -22 41z"/>
<path d="M1191 1032 c15 -43 59 -90 102 -107 36 -15 37 -15 37 8 0 47 -80 127
-127 127 -20 0 -21 -3 -12 -28z"/>
<path d="M363 654 c-25 -11 -12 -24 23 -24 24 0 34 4 32 13 -5 13 -35 19 -55
11z"/>
<path d="M1224 625 c-8 -47 12 -71 51 -61 24 6 26 10 23 49 -3 39 -5 42 -35
45 -30 3 -32 1 -39 -33z"/>
<path d="M1507 653 c-15 -15 -5 -23 29 -23 31 0 35 2 24 15 -13 16 -42 20 -53
8z"/>
<path d="M2042 648 c-25 -25 -6 -88 27 -88 21 0 51 30 51 52 0 18 -31 48 -51
48 -8 0 -20 -5 -27 -12z"/>
<path d="M890 641 c-23 -44 1 -88 43 -77 23 5 27 12 27 45 0 26 -5 41 -16 45
-27 10 -43 7 -54 -13z"/>
</g>
</svg>
